<?xml version="1.0" encoding="utf-8"?>
<!-- Generator: Adobe Illustrator 22.0.1, SVG Export Plug-In . SVG Version: 6.00 Build 0)  -->
<svg version="1.1" id="Layer_1" xmlns="http://www.w3.org/2000/svg" xmlns:xlink="http://www.w3.org/1999/xlink" x="0px" y="0px"
	 viewBox="0 0 1198.8 1138.6" style="enable-background:new 0 0 1198.8 1138.6;" xml:space="preserve">
<style type="text/css">
	.st0{fill:#A9DDEA;}
	.st1{fill:#FFFFFF;}
	.st2{fill:#FFFFFF;stroke:#000000;stroke-width:2;stroke-miterlimit:10;}
	.st3{fill:#231F20;}
	.st4{fill:#678842;}
	.st5{fill:#FEEC86;}
	.st6{fill:#FDBF17;}
	.st7{fill:#1DB1BF;}
	.st8{fill:#131313;}
	.st9{fill:#A4B83C;}
	.st10{fill:#FFFFFF;stroke:#231F20;stroke-width:2;stroke-miterlimit:10;}
	.st11{fill:none;}
	.st12{fill:none;stroke:#000000;stroke-width:2.13;stroke-miterlimit:10;}
	.st13{fill:none;stroke:#000000;stroke-width:2;stroke-miterlimit:10;}
	.st14{font-family:'Aleo-Regular',sans-serif;}
	.st15{font-size:12px;}
	.st16{font-size:22px;}
	.st17{font-family:'Aleo-Bold',sans-serif;}
	.st18{font-size:32px;}
</style>
<title>Layer 1</title>
<g>
	<path class="st0" d="M0.4,0.2h1198.4v1135.6H0.4V0.2L0.4,0.2z"/>
</g>
<path class="st1" d="M331.9,571.1c8.4,26.4-6.2,54.5-32.6,62.9s-54.5-6.2-62.9-32.6c-8.4-26.4,6.2-54.5,32.6-62.9
	S323.5,544.7,331.9,571.1z"/>
<path class="st1" d="M396.4,661.7c9.4,29.7-7,61.4-36.7,70.8c-29.7,9.4-61.4-7-70.8-36.7c-9.4-29.7,7-61.4,36.7-70.8
	C355.3,615.6,387,632,396.4,661.7L396.4,661.7z"/>
<path class="st1" d="M286.8,315.9c29,8.3,45.8,38.6,37.4,67.6c-8.3,29-38.6,45.8-67.6,37.4c-29-8.3-45.8-38.6-37.4-67.6
	C227.5,324.3,257.8,307.6,286.8,315.9z"/>
<path class="st1" d="M311.3,480.1c0.4,27.7-21.7,50.4-49.3,50.9c-27.7,0.4-50.4-21.7-50.9-49.3c-0.4-27.7,21.6-50.4,49.3-50.9
	C288.1,430.3,310.8,452.4,311.3,480.1z"/>
<path class="st1" d="M343.6,224c23.3,15,30,46,15.1,69.2c-15,23.3-46,30-69.2,15.1c-23.3-15-30-46-15.1-69.2
	C289.3,215.8,320.3,209,343.6,224L343.6,224z"/>
<path class="st1" d="M418.7,226c-21.2,17.8-52.8,15.2-70.6-6s-15.2-52.8,6-70.6s52.8-15.2,70.6,6C442.6,176.6,439.9,208.2,418.7,226
	z"/>
<path class="st1" d="M624.6,102.5c3,26.4-15.9,50.3-42.3,53.4c-26.4,3-50.3-15.9-53.4-42.3c-3-26.4,15.9-50.3,42.3-53.4
	C597.7,57.1,621.5,76.1,624.6,102.5L624.6,102.5z"/>
<path class="st1" d="M735.1,127.7c-5.2,28.8-32.7,48-61.6,42.9c-28.8-5.2-48-32.7-42.9-61.6c5.2-28.8,32.7-48,61.6-42.9
	C721.1,71.2,740.3,98.8,735.1,127.7z"/>
<path class="st1" d="M758.8,207.3c-24.6-12.6-34.3-42.8-21.7-67.5c12.6-24.6,42.8-34.3,67.5-21.7c24.6,12.6,34.3,42.8,21.7,67.5
	C813.7,210.2,783.5,219.9,758.8,207.3z"/>
<path class="st1" d="M938.1,368.3c-24.2,13.5-54.7,4.9-68.2-19.3c-13.5-24.2-4.9-54.7,19.3-68.2s54.7-4.9,68.2,19.3
	C970.9,324.3,962.2,354.8,938.1,368.3z"/>
<path class="st1" d="M825.2,270.8c-19.9-19.2-20.6-50.9-1.4-70.9c19.2-19.9,50.9-20.6,70.9-1.4c19.9,19.2,20.6,50.9,1.4,70.8
	C876.9,289.3,845.1,289.9,825.2,270.8z"/>
<path class="st1" d="M949.4,476.4c-27,6-53.8-11-59.8-38.1c-6-27,11-53.8,38.1-59.8c27-6,53.8,11,59.8,38.1
	C993.4,443.6,976.4,470.4,949.4,476.4z"/>
<path class="st1" d="M922.8,596c-30.7-2.3-53.8-29.1-51.4-59.8c2.3-30.7,29.1-53.8,59.8-51.4c30.7,2.3,53.7,29.1,51.4,59.8
	C980.4,575.2,953.6,598.3,922.8,596L922.8,596z"/>
<path class="st1" d="M525.4,124c3.2,27.5-16.6,52.3-44.1,55.5s-52.3-16.5-55.5-44s16.6-52.3,44.1-55.5S522.2,96.5,525.4,124z"/>
<path class="st1" d="M858.4,702c-30.7-2.3-53.8-29.1-51.4-59.8c2.3-30.7,29.1-53.8,59.8-51.4c30.7,2.3,53.7,29.1,51.4,59.8
	S889.1,704.4,858.4,702z"/>
<g>
	<path class="st2" d="M461.5,662.3l-7.3,8.7c-0.2,0.2-19.9,14.3-21,13.7l-18.7,1.7l-9.9-9.2c0,0,3.9-4.8,7.5-1.5l4.6,4.3l11.6-3.1
		l9.3-10l-1.9-6.3l-0.1-0.1v-0.1l-6.3-5.8c-1.8-1.8-1.4-5.3,0.4-7.1l0.5-0.4l8,7.4l5.9,5.4l0.3-0.3l5.7-7.1L461.5,662.3L461.5,662.3
		z"/>
	<path class="st2" d="M809.1,550.7l10.4,4.5c0.3,0.1,24.2,3.8,25,2.8l17.4-6.9l4.7-12.6c-0.1,0-5.7-2.5-7.3,2l-2.2,5.9l-11.8,2.4
		l-12.8-4.8l-1.1-6.4v-0.1l3-8.1c0.8-2.4-1.2-5.3-3.6-6.2l-0.6-0.2l-3.7,10.1l-2.8,7.5l-0.4-0.2l-8.3-3.8L809.1,550.7L809.1,550.7z"
		/>
	<path class="st1" d="M489.8,401l-0.6,0.6l1.5,2.2l1,1.6l-10.5,6.8l-3-4.4h-0.5c-2.2-0.1-4.1-1.2-5.3-3l-7.6-11.4l-1.5-2.6
		c-0.6-0.9-0.4-2.1,0.5-2.7c1.6-1,2-0.4,2.2-0.1l1.7-1.1l-0.4-0.6c-0.5-0.9-0.1-2.1,0.9-2.5c0.8-0.4,1.7-0.2,2.3,0.4l1.7-1.2
		l-0.8-1.2c-0.6-0.9-0.3-2,0.5-2.6s2-0.3,2.6,0.5l0.9,1.4l1.7-1.2c-0.5-0.9-0.2-2,0.7-2.6c0.9-0.6,2.1-0.4,2.8,0.5l7,10.4l0.4-0.3
		l1.4-0.9l-4.2-6.2c-1.1-1.6-0.6-3.7,0.9-4.8l0.4-0.3l2.5,3.7l0.5,0.7l2.5,3.8l1,1.5l-1.5,12.5C491.2,399.1,490.6,400.1,489.8,401
		L489.8,401z"/>
	<path class="st1" d="M493.5,398.2l1.6-13.3l-1.4-2.1l-2.9-4.3l-3.8-5.6l-2.1,1.4c-1.1,0.7-1.9,1.8-2.2,3l-0.4-0.6
		c-1.2-1.9-3.8-2.4-5.6-1.1c-0.7,0.5-1.2,1.1-1.5,1.9c-1.8-1.2-4.3-0.7-5.5,1.1c-0.5,0.8-0.7,1.7-0.6,2.7c-2.2-0.1-4,1.7-4.1,3.9
		v0.3c-0.8,0.1-1.6,0.4-2.3,0.9c-1.8,1.2-2.3,3.7-1.1,5.5l1.5,2.5l7.6,11.4c1.5,2.2,3.8,3.6,6.4,3.9l2.4,3.5l1.2,2l14.1-9l-1.2-2
		l-1.7-2.5C492.7,400.7,493.3,399.5,493.5,398.2L493.5,398.2z M493,385.4l-1.5,12.5c-0.3,1.1-0.8,2.2-1.6,3.1l-0.6,0.6l1.5,2.2
		l1,1.6l-10.5,6.8l-3-4.4h-0.5c-2.2-0.1-4.1-1.2-5.3-3l-7.6-11.4l-1.5-2.6c-0.6-0.9-0.4-2.1,0.5-2.7c1.6-1,2-0.4,2.2-0.1l1.7-1.1
		l-0.4-0.6c-0.5-0.9-0.1-2.1,0.9-2.5c0.8-0.4,1.7-0.2,2.3,0.4l1.7-1.2l-0.8-1.2c-0.6-0.9-0.3-2,0.5-2.6s2-0.3,2.6,0.5l0.9,1.4
		l1.7-1.2c-0.5-0.9-0.2-2,0.7-2.6c0.9-0.6,2.1-0.4,2.8,0.5l7,10.4l0.4-0.3l1.4-0.9l-4.2-6.2c-1.1-1.6-0.6-3.7,0.9-4.8l0.4-0.3
		l2.5,3.7l0.5,0.7l2.5,3.8L493,385.4L493,385.4z"/>
	<path class="st3" d="M493.7,382.8l-2.9-4.3l-3.8-5.6l-2.1,1.4c-1.1,0.7-1.9,1.8-2.2,3l-0.4-0.6c-1.2-1.9-3.8-2.4-5.6-1.1
		c-0.7,0.5-1.2,1.1-1.5,1.9c-1.8-1.2-4.3-0.7-5.5,1.1c-0.5,0.8-0.7,1.7-0.6,2.7c-2.2,0-4,1.7-4.1,3.9v0.3c-0.8,0.1-1.6,0.4-2.3,0.9
		c-1.8,1.2-2.3,3.7-1.1,5.5l1.5,2.5l7.6,11.4c1.5,2.2,3.8,3.6,6.4,3.9l2.4,3.5l1.2,2l14.1-9l-1.2-2l-1.7-2.5c0.8-1,1.3-2.2,1.6-3.4
		v-0.1l1.6-13.3L493.7,382.8L493.7,382.8z M489.4,380.2l2.5,3.8l1,1.5l-1.5,12.5c-0.3,1.1-0.8,2.2-1.6,3.1l-0.6,0.6l1.5,2.2l1,1.6
		l-10.5,6.7l-3-4.4h-0.5c-2.2-0.1-4.1-1.2-5.3-3l-7.6-11.4l-1.5-2.6c-0.6-0.9-0.4-2.1,0.5-2.7c1.6-1,2-0.4,2.2-0.1l1.7-1.1l-0.4-0.6
		c-0.5-0.9-0.1-2.1,0.9-2.5c0.8-0.4,1.7-0.2,2.3,0.4l1.7-1.2l-0.8-1.2c-0.6-0.9-0.3-2,0.5-2.6s2-0.3,2.6,0.5l0.9,1.4l1.7-1.2
		c-0.5-0.9-0.2-2,0.7-2.6c0.9-0.6,2.1-0.4,2.8,0.5l7,10.4l0.4-0.3l1.4-0.9l-4.2-6.2c-1.1-1.6-0.6-3.7,0.9-4.8l0.4-0.3l2.5,3.7
		L489.4,380.2L489.4,380.2z"/>
	<path class="st4" d="M554.4,504.5l-41.7-24.9c-3.1-1.6-5.6-4.2-7.2-7.3l-27.1-45.8c0,0,0-0.1-0.1-0.2l26.3-15.6l0.1,0.1l25.9,43.8
		l29.2,13.9L554.4,504.5L554.4,504.5z"/>
	<path class="st4" d="M472.6,416.9l26.3-15.6l5.7,9.6l-26.3,15.6L472.6,416.9z"/>
	<path class="st4" d="M426.8,369.7l30.6-38.9l16.8,13.2l-30.6,38.9L426.8,369.7z"/>
	<path class="st4" d="M436.9,368.9l30.6-38.9l16.8,13.2L453.6,382L436.9,368.9z"/>
	<path class="st3" d="M503.6,350.6c1.4,2,0.9,4.8-1.2,6.2l-8.5,5.8c-2,1.4-4.8,0.9-6.2-1.1c-1.4-2-0.9-4.8,1.2-6.2l8.5-5.8
		C499.4,348.1,502.2,348.6,503.6,350.6z"/>
	<path class="st3" d="M482.1,395.2l23.8-22.4l-22.1-32.2L460,363L482.1,395.2z"/>
	<path class="st1" d="M469.7,372.6l19.9-19l-3.6-5.3l-20,18.9L469.7,372.6z"/>
	<path class="st0" d="M478.9,386l20-18.9l-3.7-5.3l-19.9,18.9L478.9,386z"/>
	<path class="st3" d="M482.1,395.2l-29.5,14.1L430.5,377l29.5-14L482.1,395.2L482.1,395.2z"/>
	<path class="st1" d="M465.5,375.5l-24.9,11.7l-3.7-5.4l24.9-11.7L465.5,375.5z"/>
	<path class="st1" d="M474.7,388.9l-24.9,11.8l-3.7-5.4l24.9-11.7L474.7,388.9L474.7,388.9z"/>
	<path class="st1" d="M719.2,400.7l0.3,0.7l-2.1,1.7l-1.5,1.2l8.1,9.6l4.2-3.3l0.5,0.1c2.1,0.6,4.3,0.1,6-1.3l10.7-8.6l2.2-2
		c0.8-0.6,1-1.8,0.3-2.7c-1.2-1.5-1.8-1-2.1-0.7l-1.3-1.6l0.6-0.5c0.8-0.7,0.8-1.9,0.1-2.7c-0.6-0.7-1.7-0.8-2.5-0.3l-1.3-1.6
		l1.1-0.9c0.8-0.7,0.8-1.9,0.1-2.7c-0.6-0.7-1.7-0.8-2.5-0.3l-1.3,1l-1.3-1.6c0.7-0.7,0.8-1.9,0.1-2.7c-0.7-0.9-2-1-2.8-0.3
		l-9.8,7.9l-0.3-0.4l-1-1.3l5.8-4.7c1.5-1.2,1.7-3.3,0.5-4.8l-0.3-0.4l-3.5,2.8l-0.6,0.5l-3.5,2.9l-1.4,1.1l-2.3,12.4
		C718.5,398.4,718.7,399.6,719.2,400.7L719.2,400.7z"/>
	<path class="st1" d="M716.5,397.1c-0.1,1.3,0.1,2.5,0.5,3.8l-2.4,1.9l-1.8,1.5l10.8,12.8l1.8-1.5l3.3-2.7c2.6,0.5,5.3-0.1,7.3-1.8
		l10.7-8.6l2.2-2c1.7-1.4,2-3.9,0.6-5.6c-0.5-0.7-1.2-1.2-1.9-1.5c0.5-1.3,0.3-2.8-0.6-3.9c-0.5-0.6-1.2-1.1-2-1.3
		c0.9-2,0-4.4-2-5.3c-0.9-0.4-1.8-0.4-2.7-0.2c-0.1-0.8-0.4-1.6-0.9-2.3c-1.4-1.7-4-2-5.7-0.6l-0.6,0.5c0-1.3-0.4-2.5-1.2-3.5
		l-1.6-1.9l-5.3,4.2l-4,3.3l-2,1.6L716.5,397.1L716.5,397.1z M722.3,383.7l3.5-2.9l0.6-0.5l3.5-2.8l0.3,0.4c1.2,1.5,1,3.6-0.5,4.8
		l-5.8,4.7l1,1.3l0.3,0.4l9.8-7.9c0.9-0.7,2.1-0.6,2.8,0.3c0.7,0.8,0.6,2-0.1,2.7l1.3,1.6l1.3-1c0.9-0.6,2-0.4,2.6,0.5
		c0.5,0.8,0.4,1.8-0.3,2.5l-1.1,0.9l1.3,1.6c0.9-0.6,2-0.4,2.6,0.5c0.5,0.8,0.4,1.8-0.3,2.5l-0.6,0.5l1.3,1.6
		c0.3-0.2,0.9-0.7,2.1,0.7c0.7,0.8,0.5,2-0.3,2.7l-2.2,2l-10.7,8.6c-1.7,1.4-3.9,1.9-6,1.3l-0.5-0.1l-4.2,3.3l-8.1-9.6l1.5-1.2
		l2.1-1.7l-0.3-0.7c-0.5-1.1-0.7-2.2-0.6-3.4l2.3-12.4L722.3,383.7L722.3,383.7z"/>
	<path class="st3" d="M719,383.8l-2.4,13.2v0.1c-0.1,1.3,0.1,2.5,0.5,3.8l-2.4,1.9l-1.8,1.5l10.8,12.8l1.8-1.5l3.3-2.7
		c2.6,0.5,5.3-0.1,7.3-1.8l10.7-8.6l2.2-2c1.7-1.4,2-3.9,0.6-5.6c-0.5-0.7-1.2-1.2-1.9-1.5c0.5-1.3,0.3-2.8-0.6-3.9
		c-0.5-0.6-1.2-1.1-2-1.3c0.9-2,0-4.4-2-5.3c-0.9-0.4-1.8-0.4-2.7-0.2c-0.1-0.8-0.4-1.6-0.9-2.3c-1.4-1.7-4-2-5.7-0.6l-0.6,0.5
		c0-1.3-0.4-2.5-1.2-3.5l-1.6-1.9l-5.3,4.2l-4,3.3L719,383.8L719,383.8z M726.5,380.4l3.5-2.8l0.3,0.4c1.2,1.5,1,3.6-0.5,4.8
		l-5.8,4.7l1,1.3l0.3,0.4l9.8-7.9c0.9-0.7,2.1-0.6,2.8,0.3c0.7,0.8,0.6,2-0.1,2.7l1.3,1.6l1.3-1c0.9-0.6,2-0.4,2.6,0.5
		c0.5,0.8,0.4,1.8-0.3,2.5l-1.1,0.9l1.3,1.6c0.9-0.6,2-0.4,2.6,0.5c0.5,0.8,0.4,1.8-0.3,2.5l-0.6,0.5l1.3,1.6
		c0.3-0.2,0.9-0.7,2.1,0.7c0.7,0.8,0.5,2-0.3,2.7l-2.2,2l-10.7,8.6c-1.7,1.4-3.9,1.9-6,1.3l-0.5-0.1l-4.2,3.3l-8.1-9.6l1.5-1.2
		l2.1-1.7l-0.3-0.7c-0.5-1.1-0.7-2.2-0.6-3.4L721,385l1.4-1.1l3.5-2.9L726.5,380.4L726.5,380.4z"/>
	<path class="st5" d="M699.4,362.6l69.6-42l54.5,90.2l-69.6,42L699.4,362.6z"/>
	<path class="st6" d="M709.2,371.5l63.2-38.1l0.7,1.2l-63.2,38.1L709.2,371.5z"/>
	<path class="st6" d="M712.5,377l14.5-8.7l0.7,1.2l-14.5,8.7L712.5,377z"/>
	<path class="st6" d="M719.1,388l63.2-38.1l0.7,1.2l-63.2,38.1L719.1,388z"/>
	<path class="st6" d="M722.5,393.6l63.2-38.1l0.7,1.2l-63.2,38.1L722.5,393.6z"/>
	<path class="st6" d="M725.8,399.2L789,361l0.7,1.2l-63.2,38.1L725.8,399.2z"/>
	<path class="st6" d="M729.1,404.7l33.7-20.4l0.7,1.2l-33.7,20.4L729.1,404.7z"/>
	<path class="st6" d="M735.8,415.6l63.2-38.1l0.7,1.2l-63.2,38.1L735.8,415.6z"/>
	<path class="st6" d="M743.2,420.3l63.4-38.3l0.7,1.2l-63.4,38.3L743.2,420.3z"/>
	<path class="st6" d="M742.4,426.6l63.2-38.1l0.7,1.2l-63.2,38.1L742.4,426.6z"/>
	<path class="st6" d="M745.8,432.1l31.6-19.1l0.7,1.2l-31.6,19.1L745.8,432.1z"/>
	<path class="st6" d="M792.2,419.2l23.4-14.1l0.7,1.2l-23.4,14.1L792.2,419.2z"/>
	<path class="st4" d="M730.3,421.9L711.8,398l-8.7,6.7L625.9,465c-3.4,7,8.5-0.5,2.2,4c6.5,5.8,11.1,13.4,13.3,21.8l80.3-62.1
		L730.3,421.9L730.3,421.9z"/>
	<path class="st7" d="M800.3,421.4c-0.1,0-0.2-0.1-0.3-0.1c-1.4-1.4-2.5-2.9-3.4-4.6l-0.5-0.9l-0.5-0.8c-0.6-1-1.3-2.2-1.9-3.4
		c-0.4,1.5-0.8,2.9-1.4,4.3c-0.1,0.3-0.4,0.4-0.6,0.3c-0.2-0.1-0.4-0.4-0.3-0.6c0.8-1.8,1.3-3.6,1.6-5.5c-0.7-1.5-1-3.2-0.9-4.8
		c0-0.1,0.1-0.3,0.2-0.4c0.1-0.1,0.3-0.1,0.4,0c0.9,0.3,1.1,1.7,1.2,2.5v0.2c0.1,0.8,0.1,1.6,0,2.4c0.7,1.6,1.6,3.1,2.5,4.6l0.5,0.8
		l0.5,0.9c0.7,1.3,1.6,2.6,2.6,3.8c0-1.2-0.2-2.4-0.5-3.6c-0.1-0.5-0.2-1-0.3-1.4c-0.3-1.3-0.6-2.6-1-3.8c-0.1-0.3,0-0.5,0.3-0.6
		c2.4-0.9,6.6-4.2,8.2-6c0.2-0.2,0.5-0.2,0.7,0s0.2,0.5,0,0.7c-2.3,2.4-5.1,4.4-8,6c0.4,1.2,0.6,2.3,0.9,3.5
		c0.1,0.4,0.2,0.9,0.3,1.4c0.4,1.7,0.8,3.8,0.3,5l-0.3,0.3L800.3,421.4L800.3,421.4z"/>
	<path class="st6" d="M705.7,365.9l63.2-38.1l0.7,1.2l-63.2,38.1L705.7,365.9z"/>
	<path class="st4" d="M813.4,557.3l7.1-29.4l-87.4-15.4l-82.8-35.1c-7.6,1.7-5.3,9.7-12.8,7.6c-0.5,8.5-0.9,13.1-6.2,20.2l88.1,37.2
		l7.5,3L813.4,557.3L813.4,557.3z"/>
	<path class="st4" d="M573,525.3c0,0-57.9,101.3-58.7,102.6c-1.1,1.7-2.6,3.1-4.2,4.2l-41.4,33.4l-0.1,0.1l-19.2-23.8l0.1-0.1
		l39.6-32l54-85.3L573,525.3L573,525.3z"/>
	<path class="st4" d="M440.7,648.7l8.6-7l19.2,23.8l-8.6,7L440.7,648.7z"/>
	<path class="st1" d="M483.1,547.7l0.7,0.5l2.1-1.7l1.4-1.2l7.9,9.8l-4.1,3.5v0.5c0.1,2.2-0.8,4.3-2.4,5.6l-10.5,8.8l-2.4,1.8
		c-0.8,0.7-2,0.6-2.7-0.2c-1.2-1.5-0.6-2-0.3-2.2l-1.3-1.6l-0.6,0.5c-0.8,0.7-2,0.6-2.7-0.2s-0.6-2,0.2-2.7l-1.3-1.6l-1.1,1
		c-0.8,0.7-2,0.6-2.7-0.2s-0.6-2,0.2-2.7l1.3-1.1l-1.3-1.6c-0.9,0.6-2,0.4-2.7-0.4c-0.7-0.8-0.6-2.1,0.2-2.8l9.6-8.1l-0.3-0.4
		l-1.1-1.3l-5.8,4.8c-1.5,1.2-3.6,1-4.9-0.4l-0.3-0.3l3.4-2.9l0.6-0.5l3.5-2.9l1.4-1.2l12.6,0.1C481,546.6,482.1,547,483.1,547.7
		L483.1,547.7z"/>
	<path class="st1" d="M479.9,544.3l-13.4-0.2l-2,1.7l-4,3.3l-5.1,4.4l1.6,1.9c0.8,1,2,1.6,3.2,1.9l-0.6,0.5c-1.7,1.4-1.9,4-0.5,5.7
		c0.5,0.6,1.2,1.1,2,1.3c-1,2-0.2,4.4,1.8,5.4c0.8,0.4,1.8,0.5,2.7,0.3c0.1,0.8,0.4,1.6,0.9,2.2c0.9,1.1,2.3,1.6,3.7,1.4
		c0.2,0.8,0.6,1.6,1.2,2.2c1.4,1.7,3.9,1.9,5.6,0.5l2.4-1.8l10.5-8.8c2-1.7,3.2-4.2,3.2-6.8l3.3-2.8l1.8-1.5l-10.4-13l-1.8,1.5
		l-2.3,2C482.5,545,481.3,544.6,479.9,544.3L479.9,544.3z M467.3,546.3l12.6,0.1c1.2,0.1,2.3,0.6,3.2,1.3l0.7,0.5l2.1-1.7l1.4-1.2
		l7.9,9.8l-4.1,3.5v0.5c0.1,2.2-0.8,4.3-2.4,5.6l-10.5,8.8l-2.4,1.8c-0.8,0.7-2,0.6-2.7-0.2c-1.2-1.5-0.6-2-0.3-2.2l-1.3-1.6
		l-0.6,0.5c-0.8,0.7-2,0.6-2.7-0.2s-0.6-2,0.2-2.7l-1.3-1.6l-1.1,1c-0.8,0.7-2,0.6-2.7-0.2s-0.6-2,0.2-2.7l1.3-1.1l-1.3-1.6
		c-0.9,0.6-2,0.4-2.7-0.4c-0.7-0.8-0.6-2.1,0.2-2.8l9.6-8.1l-0.3-0.4l-1.1-1.3l-5.8,4.8c-1.5,1.2-3.6,1-4.9-0.4l-0.3-0.3l3.4-2.9
		l0.6-0.5l3.5-2.9L467.3,546.3L467.3,546.3z"/>
	<path class="st3" d="M464.5,545.9l-4,3.3l-5.1,4.4l1.6,1.9c0.8,1,2,1.6,3.2,1.9l-0.6,0.5c-1.7,1.4-1.9,4-0.5,5.7
		c0.5,0.6,1.2,1.1,2,1.3c-1,2-0.2,4.4,1.8,5.4c0.8,0.4,1.8,0.5,2.7,0.3c0.1,0.8,0.4,1.6,0.9,2.2c0.9,1.1,2.3,1.6,3.7,1.4
		c0.2,0.8,0.6,1.6,1.2,2.2c1.4,1.7,3.9,1.9,5.6,0.5l2.4-1.8l10.5-8.9c2-1.7,3.2-4.2,3.2-6.8l3.3-2.8l1.8-1.5l-10.4-13l-1.8,1.5
		l-2.3,2c-1.1-0.7-2.3-1.1-3.6-1.2H480l-13.4-0.2L464.5,545.9L464.5,545.9z M462.4,550.4l3.5-2.9l1.4-1.2l12.6,0.1
		c1.2,0.1,2.3,0.6,3.2,1.3l0.7,0.5l2.1-1.7l1.4-1.2l7.9,9.8l-4.1,3.5v0.5c0.1,2.2-0.8,4.3-2.4,5.6l-10.5,8.8l-2.4,1.8
		c-0.8,0.7-2,0.6-2.7-0.2c-1.2-1.5-0.6-2-0.3-2.2l-1.3-1.6l-0.6,0.5c-0.8,0.7-2,0.6-2.7-0.2s-0.6-2,0.2-2.7l-1.3-1.6l-1.1,0.9
		c-0.8,0.7-2,0.6-2.7-0.2s-0.6-2,0.2-2.7l1.3-1.1l-1.3-1.6c-0.9,0.6-2,0.4-2.7-0.4c-0.7-0.8-0.6-2.1,0.2-2.8l9.6-8.1l-0.3-0.4
		l-1.1-1.3l-5.8,4.8c-1.5,1.2-3.6,1-4.9-0.4l-0.3-0.3l3.4-2.9L462.4,550.4L462.4,550.4z"/>
	<path class="st4" d="M592.5,450.9c-24.4,2.9-41.7,25-38.8,49.4l14.8,123.9l88.2-10.5l-14.8-123.9C639,465.4,616.9,448,592.5,450.9
		L592.5,450.9z"/>
	<path class="st1" d="M719.7,584.1l-0.7,0.4l-1.9-1.9l-1.3-1.3l-8.8,9l3.7,3.8l-0.1,0.5c-0.3,2.1,0.4,4.3,1.9,5.8l9.6,9.7l2.2,2
		c0.7,0.8,1.9,0.8,2.7,0.1c1.3-1.3,0.8-1.9,0.5-2.2l1.5-1.5l0.5,0.5c0.7,0.8,1.9,0.9,2.7,0.2s0.9-1.9,0.2-2.7l-0.2-0.2l1.5-1.5l1,1
		c0.7,0.7,1.9,0.8,2.7,0c0.7-0.7,0.8-1.9,0-2.7l-1.1-1.1l1.5-1.5c0.8,0.7,2,0.6,2.7-0.2c0.8-0.8,0.8-2,0-2.8l-8.8-8.9l0.3-0.3
		l1.2-1.2l5.3,5.3c1.3,1.3,3.5,1.3,4.9,0l0.3-0.3l-3.1-3.2l-0.6-0.6l-3.2-3.3l-1.3-1.3l-12.5-1C721.9,583.2,720.7,583.5,719.7,584.1
		L719.7,584.1z"/>
	<path class="st1" d="M723,581c-1.3,0-2.5,0.3-3.7,0.9l-2.1-2.2l-1.7-1.6l-11.7,12l1.7,1.6l3,3.1c-0.3,2.6,0.7,5.2,2.5,7.1l9.7,9.8
		l2.2,2c1.6,1.5,4.1,1.5,5.6,0c0.6-0.6,1.1-1.3,1.3-2.1c1.4,0.4,2.8,0,3.9-1c0.6-0.6,1-1.3,1.1-2.2c2.1,0.7,4.4-0.4,5.1-2.5
		c0.3-0.9,0.3-1.9-0.1-2.8c0.8-0.2,1.6-0.5,2.2-1.1c1.6-1.6,1.6-4.2,0-5.8l-0.5-0.6c1.3-0.1,2.5-0.7,3.4-1.6l1.8-1.8l-4.7-4.8
		l-3.6-3.6l-1.8-1.8l-13.4-1.1L723,581L723,581z M736.9,585.5l3.2,3.3l0.6,0.6l3.1,3.2l-0.3,0.3c-1.3,1.3-3.5,1.3-4.9,0l-5.3-5.3
		l-1.2,1.2l-0.3,0.3l8.8,8.9c0.8,0.8,0.8,2,0,2.8c-0.7,0.7-1.9,0.8-2.7,0.2l-1.5,1.4l1.2,1.2c0.7,0.7,0.7,1.9,0,2.7
		c-0.7,0.7-1.9,0.7-2.7,0l-1-1l-1.5,1.5c0.8,0.7,0.9,1.9,0.2,2.7s-1.9,0.9-2.7,0.2l-0.2-0.2l-0.5-0.5l-1.5,1.5
		c0.2,0.3,0.8,0.8-0.5,2.2c-0.8,0.7-2,0.7-2.7,0l-2.2-2l-9.6-9.8c-1.5-1.5-2.2-3.7-1.9-5.8l0.1-0.5l-3.7-3.8l8.8-9l1.3,1.3l1.9,1.9
		l0.7-0.4c1-0.6,2.2-1,3.3-1l12.5,1L736.9,585.5L736.9,585.5z"/>
	<path class="st3" d="M736.5,582.2l-13.4-1.1H723c-1.3,0-2.5,0.3-3.7,0.9l-2.1-2.2l-1.7-1.6l-11.7,12l1.7,1.6l3,3.1
		c-0.3,2.6,0.7,5.2,2.5,7.1l9.7,9.8l2.2,2c1.6,1.5,4.1,1.5,5.6,0c0.6-0.6,1.1-1.3,1.3-2.1c1.4,0.4,2.8,0,3.9-1
		c0.6-0.6,1-1.3,1.1-2.2c2.1,0.7,4.4-0.4,5.1-2.5c0.3-0.9,0.3-1.9-0.1-2.8c0.8-0.2,1.6-0.5,2.2-1.1c1.6-1.6,1.6-4.2,0-5.8l-0.5-0.6
		c1.3-0.1,2.5-0.7,3.4-1.6l1.8-1.8l-4.7-4.8l-3.6-3.6L736.5,582.2L736.5,582.2z M740.6,589.3l3.1,3.2l-0.3,0.3
		c-1.3,1.3-3.5,1.3-4.9,0l-5.3-5.3l-1.2,1.2l-0.3,0.3l8.8,8.9c0.8,0.8,0.8,2,0,2.8c-0.7,0.7-1.9,0.8-2.7,0.2l-1.5,1.4l1.2,1.2
		c0.7,0.7,0.7,1.9,0,2.7c-0.7,0.7-1.9,0.7-2.7,0l-1-1l-1.5,1.5c0.8,0.7,0.9,1.9,0.2,2.7s-1.9,0.9-2.7,0.2l-0.2-0.2l-0.5-0.5
		l-1.5,1.5c0.2,0.3,0.8,0.8-0.5,2.2c-0.8,0.7-2,0.7-2.7,0l-2.2-2l-9.6-9.8c-1.5-1.5-2.2-3.7-1.9-5.8l0.1-0.5l-3.7-3.8l8.8-9l1.3,1.3
		l1.9,1.9l0.7-0.4c1-0.6,2.2-1,3.3-1l12.5,1l1.3,1.3l3.2,3.3L740.6,589.3L740.6,589.3z"/>
	<path class="st1" d="M730.5,589c-12.3,1.1-21.4,11.9-20.4,24.2s11.9,21.4,24.2,20.4c12.3-1.1,21.4-11.9,20.4-24.2
		C753.6,597.1,742.8,588,730.5,589z"/>
	<path class="st3" d="M754.7,609.4c1.1,12.3-8.1,23.1-20.3,24.2s-23.1-8.1-24.2-20.3c-1.1-12.3,8.1-23.1,20.3-24.2
		C742.8,588,753.6,597.1,754.7,609.4 M756.8,609.2c-1.2-13.5-13-23.5-26.5-22.4c-13.5,1.2-23.5,13-22.4,26.5
		c1.2,13.5,13,23.5,26.5,22.4C748,634.5,758,622.7,756.8,609.2z"/>
	<path class="st3" d="M751.5,608.8l1.7-0.1l0.1,1.7l-1.7,0.1L751.5,608.8z"/>
	<path class="st3" d="M729.7,590.3l1.7-0.1l0.1,1.7l-1.7,0.1L729.7,590.3z"/>
	<path class="st3" d="M711.3,612.2l1.7-0.1l0.1,1.7l-1.7,0.1L711.3,612.2z"/>
	<path class="st3" d="M733.2,630.6l1.7-0.1l0.1,1.7l-1.7,0.1L733.2,630.6z"/>
	<path class="st3" d="M747.1,598.6l1.3-1l1,1.3l-1.3,1L747.1,598.6z"/>
	<path class="st3" d="M718.7,595.2l1.3-1l1,1.3l-1.3,1L718.7,595.2z"/>
	<path class="st3" d="M715.3,623.5l1.3-1l1,1.3l-1.3,1L715.3,623.5z"/>
	<path class="st3" d="M743.6,627.2l1.3-1l1,1.3l-1.3,1L743.6,627.2z"/>
	<path class="st3" d="M737.9,592.6l0.6-1.6l1.6,0.6l-0.6,1.6L737.9,592.6z"/>
	<path class="st3" d="M712.1,605.1l0.6-1.6l1.6,0.6l-0.6,1.6L712.1,605.1z"/>
	<path class="st3" d="M726.9,629.8l-1.6-0.5l-0.6,1.6l1.6,0.6L726.9,629.8L726.9,629.8z"/>
	<path class="st3" d="M750.4,618.3l0.6-1.6l1.6,0.6l-0.6,1.6L750.4,618.3z"/>
	<path class="st8" d="M732.3,609.7c-0.9,0.1-1.5,0.8-1.4,1.7s0.8,1.5,1.7,1.4s1.5-0.8,1.4-1.7C733.9,610.3,733.1,609.6,732.3,609.7z
		"/>
	<path class="st3" d="M732.1,610.8l0.1,0.9l17.2-1.4l-0.1-0.9L732.1,610.8z"/>
	<path class="st3" d="M730.9,598.8l0.9-0.1l1.1,13.1l-0.9,0.1L730.9,598.8z"/>
	<path class="st4" d="M722.3,577.5l-7.2-7.3l-66-67.5c-1.7,2-3.6,3.8-5.6,5.4l-17.2,14.1l67.4,68.9l7.2,7.3L722.3,577.5L722.3,577.5
		z"/>
	<path class="st9" d="M592.5,450.9c-24.4,2.9-41.7,25-38.8,49.4l14.8,123.9l88.2-10.5l-14.8-123.9C639,465.4,616.9,448,592.5,450.9
		L592.5,450.9z"/>
	<path class="st1" d="M591.4,466.4L620,527l6.3-66L591.4,466.4L591.4,466.4z"/>
	<path class="st7" d="M620,527l2.4-24.7l-4.6-38.3l-11.4,1.3l5.3,43.9L620,527z"/>
	<path class="st10" d="M644.1,417.2c-0.5-3.5-1.4-7-2.7-10.3c-4,0.9-8.1,1.4-12.2,1.4c-6.4,0-12.7-1.1-18.7-3.3
		c-4.7,11.6-14.5,23.4-28.1,32.2c-7.4,4.9-15.6,8.5-24.2,10.7c13.2,22,41.8,29.1,63.8,15.9C638.2,454.1,646.9,435.7,644.1,417.2
		L644.1,417.2z"/>
	<path class="st4" d="M674.4,658.2l-17.9-44.6l-39.3,4.7l17.4,43.6l-29.9,29.7l-10.1,10.1l-8,7.9L572,724.3l26.9,27.1l21.3,21.4
		c8.5-8.4-6.5-36.1-6.5-36.1l8-7.9l10.1-10.1l38.4-38.2c3.8-3.8,5.8-9,5.6-14.3C675.9,663.5,675.5,660.8,674.4,658.2L674.4,658.2z"
		/>
	<path d="M557.8,780.3c-18.2-28.6-9.7-66.6,18.9-84.7c28.6-18.2,66.6-9.7,84.7,18.9c18.2,28.6,9.7,66.6-18.9,84.7
		C613.9,817.4,576,808.9,557.8,780.3z M652.2,720.4c-14.9-23.5-46.1-30.4-69.5-15.5c-23.5,14.9-30.4,46.1-15.5,69.5
		c14.9,23.5,46.1,30.4,69.5,15.5S667,743.9,652.2,720.4z"/>
	<path class="st3" d="M591,376c-6.5,1-12.7,3.2-18.4,6.6l-1.3-6l-2,8.3l-9.2,2.5l4.4,1.5c-16.5,15.4-20.4,40.1-9.5,59.9
		c9.8-2.1,19.1-6,27.4-11.5c13.6-8.9,23.4-20.6,28.1-32.2c6,2.2,12.3,3.3,18.7,3.3c5,0,10-0.6,14.8-2
		C635.5,385.1,613.6,372.6,591,376L591,376z"/>
	<path class="st3" d="M492.8,572.7c1.8,4,0,8.6-4,10.4L441,604.2c-4,1.8-8.6,0-10.4-4l-27.8-62.9c-1.8-4,0-8.6,4-10.4l47.8-21.1
		c4-1.8,8.6,0,10.4,4L492.8,572.7L492.8,572.7z"/>
	<path class="st1" d="M486.6,569.6c1.5,3.5,0,7.5-3.5,9.1l-41.7,18.4c-3.5,1.5-7.5,0-9.1-3.5l-24.2-54.9c-1.5-3.5,0-7.5,3.5-9.1
		l41.7-18.4c3.5-1.5,7.5,0,9.1,3.5L486.6,569.6z"/>
	<path class="st3" d="M441.3,587l-9.9-21l-0.6,0.2l10.2,21.7l0.6-0.3l35.3-16.5l-0.3-0.6L441.3,587L441.3,587z"/>
	<path class="st5" d="M436.2,576.1l1-3.5l2.3-0.8l0.9-3.8l1.3-3l4.4,3.5l0.7-4.2l3,0.7l1-3.6l3.7,2.1l1.9-1.6l-0.6-7l2.2-1l5.7,6.3
		l0.9-3.8l2.5-0.4l0.9-3.8l8.6,18.3L441.3,587L436.2,576.1z"/>
	<path class="st6" d="M438.9,581.9l1-3.6l3.6,1.9l-1.4-8.6l4.9,4.7l2.9,0.5l-0.4-6.8l1.2-3.2l4.3,3.5l0.9-3.8l3.2,1.1l0.9-3.8
		l2.1-1.2l3,0.6l3.5,1.8l2.6-0.2l1.2-3.3l4.2,9L441.3,587L438.9,581.9L438.9,581.9z"/>
	<path class="st3" d="M428.2,559.1l-9.8-21.1l-0.6,0.3l10.1,21.7l0.6-0.3l35.3-16.5l-0.3-0.6L428.2,559.1L428.2,559.1z"/>
	<path class="st5" d="M423.1,548.2l-1.5-9l4.9,4.6l-2.7-11.3l6,6.9l4.7,4.5l0.7-4.3l-1-8l5,5l-0.8-7.5l4.9,4.9l-0.5-7l2.2-1l5.6,6.3
		l0.9-3.9l2-1.5l1.4-2.6l8.6,18.3l-35.3,16.5L423.1,548.2L423.1,548.2z"/>
	<path class="st6" d="M425.8,553.9l1-3.5l5.2,5.3l-1.3-8.6l0.6-4.4l5.6,6.1l0.8-3.9l-0.1-6l3.5,1.7l1.3-2.8l3.6,1.9l0.9-3.8l2.1-1.2
		l5.3,5.4l1.2-3l0.4-5l3.4,1.5l4.2,9l-35.3,16.5L425.8,553.9L425.8,553.9z"/>
	<path class="st4" d="M556.6,525l-3-24.7c-0.4-3.3-0.4-6.5-0.1-9.8l-71.4,48.8l17.1,24.9l9-6.2L556.6,525L556.6,525z"/>
	<path d="M636.6,790l-25.7-40.5l47.5,10.6c0.2-0.7,0.3-1.3,0.5-1.9l-47.5-10.6l41.4-26.3c-0.2-0.3-0.3-0.6-0.5-0.9s-0.4-0.6-0.6-0.8
		l-41.4,26.3l10.6-47.5c-0.6-0.2-1.3-0.3-2-0.4l-10.6,47.5L582.6,705c-0.6,0.4-1.1,0.7-1.7,1.1l25.7,40.5l-46-10.3
		c-0.2,0.7-0.3,1.3-0.4,2l46,10.3l-39.6,25.2c0.2,0.3,0.3,0.6,0.5,0.9s0.4,0.5,0.6,0.8l39.6-25.1l-10.3,46c0.7,0.2,1.3,0.3,2,0.5
		l10.3-46.1l25.7,40.5C635.5,790.7,636,790.3,636.6,790L636.6,790z"/>
	<path class="st4" d="M572.1,714l-4.3,13.6l-3.3,10.7l-6.2,19.9l36.5,11.4l28.8,9c3.5-11.4-22.6-28.9-22.6-28.9l3.3-10.8l4.3-13.6
		l16.1-51.7c1.2-3.7,1.2-7.7,0-11.5c-0.2-0.7-0.4-1.3-0.7-1.9l-16.4-40.8l-39.3,4.7l17.8,44.6L572.1,714"/>
	<path class="st11" d="M477.3,638.4L469,641l7.3,23.8l8.4-2.6"/>
	<path class="st12" d="M838.8,573c-4.7,9.2-10,18.1-15.7,26.7"/>
	<path class="st13" d="M830.7,564.5c-8.2,16.6-18.2,32.2-29.7,46.7"/>
	<path class="st13" d="M465.5,719c-11.2-5.6-22-11.9-32.4-18.8"/>
	<path class="st13" d="M490.6,699.8c-11.2-4.9-22.1-10.6-32.6-17"/>
	<path class="st12" d="M505.9,725.1c-17.5-6-34.4-13.6-50.5-22.9"/>
	<path class="st13" d="M868.8,428.3c0.6,7.3,0.9,14.8,0.9,22.3c0,16.2-1.4,32.3-4.3,48.3"/>
	<path class="st13" d="M861,467.7c-1.1,16.7-3.8,33.2-8,49.4"/>
</g>
<path class="st3" d="M1198.8,734V0H0v1138.6h1198.8v-2.8h0.1L1198.8,734L1198.8,734z M1109.3,1048.6l-0.6-0.8c-0.6-1-1.3-2-2-2.9
	l-0.2-0.3c-4.2-5-10.3-7.9-16.8-7.9h-38.4v-33.1c15.1-5.4,19.8-14.1,19.8-16.2c0-3.2,2.3-31.5,2.3-31.5v-0.2c1.5-2.2,3-5,5-8.8
	c4.2-8-0.2-15.2-2.8-20.4c-0.2-0.4-0.4-0.7-0.6-1c2.3-15.9,3.8-45.3-14.2-51.5l-0.3-0.1c-3.4-2.7-7.2-4.9-11.3-6.4h-0.2
	c-7.7-2.7-15.9-4.1-24.1-4h-3.1c-9.2,0-24.3,1.5-35.1,10c-0.6,0.2-1.2,0.4-1.9,0.6c-18,6.2-16.5,35.7-14.2,51.5
	c-0.2,0.3-0.4,0.6-0.6,1c-2.6,5.2-7,12.4-2.8,20.4c1.5,3,3.1,5.9,4.9,8.8v0.2c0,0,2.1,28.3,2.1,31.5c0,2.1,4.7,10.8,19.8,16.2v33
	h-38.4c-9.2,0-17.4,5.7-20.6,14.3l-37,54.7c-4.1-28.8-10.3-66.2-14.9-71c-6.1-6.4-54.4-17.7-72.9-21.8v0.2h-1.6v-20.5
	c9.9-8.9,15.9-21.2,16.9-34.5c5.2,4.6,6.5-2.1,6.3-4.7c-0.2-2.9,2.5-6.7,2.9-19.4c0.2-5.8-1.8-6.6-4-5.7c1.9-16.4,2.8-32.7-7.1-44
	c-2.2-2.5-4.8-4.6-7.7-6.2c-2.3-4.2-4.7-9.4-4.6-12.8c-5.6,7.1-2.7,8.9-2.6,9c-0.3-0.2-16.1-8.6-17.5-15.1c-1.2,5.8-0.2,8.2,0.8,9.3
	c-5.4-2.7-22.8-12-23.2-18.6c-4,16,6,18.2,7.3,18.5c-1.4-0.2-14.8-2.3-18.5-4.9c0,3.6,1.7,6,6.5,6.4c-3.7,0.4-7.5,0.3-11.2-0.3
	c0.7,1.7,1,2.4,2.4,3c-9.3,3.9-14.5,10-17.3,16.3c-6.3,10.5-5.7,24.2-3.9,39.6c-2.2-0.8-4.2-0.1-4,5.7c0.4,12.7,3.1,16.4,2.9,19.4
	c-0.2,2.7,1.1,9.3,6.3,4.7c1,13.3,7.1,25.6,17,34.5v20.5h-1.9c-19.1,4.3-66.1,15.3-72.2,21.6c-6.6,6.9-16.2,79.9-18.8,99.9h-7.5
	c-1.8-22.9-3.2-39.8-3.8-43.4c-2.1-13.3-26.7-19.5-26.7-19.5v-91c0-85.4-21.5-109.5-43.9-109.5s-24.4,5.8-24.4,5.8
	s-2.1-5.8-24.4-5.8s-43.9,24.1-43.9,109.5v91.4l-0.5,0.1c-5.4,1.6-23.3,7.8-25.1,19c0,0.2-0.1,0.4-0.1,0.7v0.3
	c0,0.4-0.1,0.8-0.2,1.3v0.5c0,0.4-0.1,0.8-0.1,1.2v1.1c-0.1,0.5-0.1,1-0.1,1.5v0.2c-0.1,1.3-0.3,2.8-0.4,4.4c0,0.5-0.1,1.1-0.1,1.6
	v0.6c0,0.5-0.1,1-0.1,1.5v0.4c-1-18.2-2.4-33.4-4.1-40.6c-5.1-21.5-46.6-36.9-66.4-41.7l-0.1-0.3c-3-0.7-6.1-1.2-9.3-1.3h-3.7v-21.2
	c9.8-9.1,18-22.3,19.2-39.1c5.9,5.2,7.3-2.3,7.1-5.4c-0.2-3.3,2.9-7.6,3.3-22c0.1-3.1-0.3-5-1.1-5.9c4.1-11,19.2-49.1-10.8-91.3
	c0.5,36.9-79.2,7.8-81.3,33.5c-25.7-3.9-27.8,14.5-25.7,42c0.4,5.5,1,10.6,1.8,15.3c-1.1,0.8-1.7,2.7-1.6,6.4
	c0.5,14.3,3.5,18.6,3.3,22c-0.2,3,1.2,10.5,7.1,5.4c1.2,16.8,9.4,30,19.2,39.1v21.2h-3.9v1.4l-0.3-1.4c-3.1,0.1-6.2,0.6-9.3,1.3
	l-0.1,0.3c-19.8,4.8-61.3,20.2-66.4,41.7c-2.5,10.7-4.3,39-5.4,68.7h-3.5c-0.8-9.3-1.4-16.7-1.9-21.3c0-0.3,0-0.5-0.1-0.7v-0.1
	c0-0.2,0-0.4-0.1-0.7c0-0.2,0-0.4-0.1-0.6s0-0.1,0-0.2v-0.4v-0.2v-0.4v-0.1v-0.4v-0.1v-0.7v-0.3c-2-12.5-25.2-18.4-25.2-18.4
	l-34.5-12.4l-5.7-2V1044c10.3-7.4,18.4-19.4,23-34c1.4,4.4,7.6-0.5,7.4-2.2c-0.2-1.9,1-21.5,0-26c-0.3-1.4-0.9-1.8-1.5-1.6
	c21.6-47.2-10.4-82-32.8-91c-24.8-9.9-36.7,7.5-36.7,7.5s-6.4-17.3-30.8,12.3c-16.9,20.6-7.6,59-4.1,70.8v1.9
	c-1.2-1.4-2.9-2.8-3.5,0c-1,4.5,0.2,24.1,0,26c-0.2,1.7,6,6.6,7.4,2.2c4.5,14.5,12.7,26.5,23,34v32.2l-5.8,2.1l-33.4,12
	c0,0-23.2,5.8-25.2,18.4v2.8c-0.1,0.2,0,0.1,0,0.1l-0.1,0.5v0.2c0,0.1,0,0.4-0.1,0.6v0.2l-0.1,0.6v1.1c0,0.2,0,0.4-0.1,0.7v0.1
	c0,0.3,0,0.5-0.1,0.8v0.1c0,0.3,0,0.6-0.1,0.9v0.1l-0.1,0.9v0.1l-0.1,1v0.1c0,0.3,0,0.7-0.1,1c-0.1,0.5,0,0.1,0,0.1l-0.1,1v0.1
	c-0.2,2-0.4,4.2-0.6,6.6c-0.2,2-0.3,4.2-0.5,6.5h-6.1v-324h1115.3v312L1109.3,1048.6L1109.3,1048.6z M1194.8,680.3
	c-14.8-8.6-34-4.6-44.1,9.7c-10.3,14.6-7.3,34.6,6.6,45.5v71.8H41.9v-71.8c2-1.6,3.8-3.4,5.4-5.4c11.5-14.5,9.1-35.5-5.3-47.1
	c-5.9-4.7-13.3-7.3-20.9-7.3c-6.1,0-12,1.6-17.2,4.7V4h1190.8L1194.8,680.3L1194.8,680.3z"/>
<rect x="870.7" y="528.1" class="st11" width="112.7" height="24.5"/>
<text transform="matrix(1 0 0 1 898.1342 536.9824)" class="st14 st15">Aboriginal </text>
<text transform="matrix(1 0 0 1 886.7342 551.3824)" class="st14 st15">Considerations</text>
<rect x="900.2" y="415.2" class="st11" width="76.7" height="24.5"/>
<text transform="matrix(1 0 0 1 903.6307 424.0391)" class="st14 st15">Employment </text>
<text transform="matrix(1 0 0 1 920.5307 438.4391)" class="st14 st15">Equity</text>
<rect x="875.3" y="312.3" class="st11" width="76.7" height="24.5"/>
<text transform="matrix(1 0 0 1 894.0321 321.1391)" class="st14 st15">Official </text>
<text transform="matrix(1 0 0 1 885.1321 335.5391)" class="st14 st15">Languages</text>
<rect x="826.9" y="222.4" class="st11" width="66.2" height="24.5"/>
<text transform="matrix(1 0 0 1 830.4788 231.2141)" class="st14 st15">Questions/</text>
<text transform="matrix(1 0 0 1 829.8788 245.6141)" class="st14 st15">Unknowns</text>
<rect x="748.6" y="150.4" class="st11" width="66.2" height="24.5"/>
<text transform="matrix(1 0 0 1 765.9207 159.2891)" class="st14 st15">Trade </text>
<text transform="matrix(1 0 0 1 748.8207 173.6891)" class="st14 st15">Agreements</text>
<rect x="641.7" y="98.1" class="st11" width="82.2" height="40.6"/>
<text transform="matrix(1 0 0 1 654.1611 106.9081)" class="st14 st15">Openness/</text>
<text transform="matrix(1 0 0 1 657.8611 121.3081)" class="st14 st15">Fairness/</text>
<text transform="matrix(1 0 0 1 645.1611 135.7081)" class="st14 st15">Transparency</text>
<rect x="345.3" y="175.5" class="st11" width="82.2" height="24.4"/>
<text transform="matrix(1 0 0 1 362.7444 184.3319)" class="st14 st15">Sourcing </text>
<text transform="matrix(1 0 0 1 362.8444 198.7319)" class="st14 st15">Methods</text>
<rect x="275.4" y="253.3" class="st11" width="82.2" height="25.8"/>
<text transform="matrix(1 0 0 1 295.3286 262.106)" class="st14 st15">Product</text>
<text transform="matrix(1 0 0 1 302.4286 276.506)" class="st14 st15">Costs</text>
<rect x="228.9" y="356" class="st11" width="85.5" height="24.9"/>
<text transform="matrix(1 0 0 1 229.7127 364.8145)" class="st14 st15">Socio-Economic </text>
<text transform="matrix(1 0 0 1 250.0127 379.2145)" class="st14 st15">Benefits</text>
<rect x="220.1" y="467" class="st11" width="82.2" height="27.7"/>
<text transform="matrix(1 0 0 1 238.7788 475.8911)" class="st14 st15">Security </text>
<text transform="matrix(1 0 0 1 223.2788 490.2911)" class="st14 st15">Requirements</text>
<rect x="241.5" y="566.9" class="st11" width="85.3" height="38.7"/>
<text transform="matrix(1 0 0 1 262.5802 575.7524)" class="st14 st15">Modern </text>
<text transform="matrix(1 0 0 1 262.4802 590.1523)" class="st14 st15">Treaties </text>
<text transform="matrix(1 0 0 1 263.1802 604.5524)" class="st14 st15">(CLCAs)</text>
<rect x="300" y="666.4" class="st11" width="85.3" height="24.7"/>
<text transform="matrix(1 0 0 1 301.5206 675.2507)" class="st14 st15">Environmental </text>
<text transform="matrix(1 0 0 1 302.4206 689.6506)" class="st14 st15">Considerations</text>
<rect x="819.9" y="634" class="st11" width="85.3" height="24.7"/>
<text transform="matrix(1 0 0 1 828.5687 642.9008)" class="st14 st15">Accessibility </text>
<text transform="matrix(1 0 0 1 822.3687 657.3008)" class="st14 st15">Considerations</text>
<rect x="434.5" y="124.1" class="st11" width="82.2" height="11.3"/>
<text transform="matrix(1 0 0 1 448.9069 132.9774)" class="st14 st15">Urgencies</text>
<rect x="535.6" y="103.1" class="st11" width="82.2" height="9.9"/>
<text transform="matrix(1 0 0 1 562.6144 111.937)" class="st14 st15">Risks</text>
<rect x="83.7" y="1098.9" class="st11" width="112.7" height="17.1"/>
<text transform="matrix(1 0 0 1 109.0684 1115.1023)" class="st1 st14 st16">Media</text>
<rect x="274" y="1066.6" class="st11" width="151.8" height="64.5"/>
<text transform="matrix(1 0 0 1 289.6425 1082.8689)" class="st1 st14 st16">Office of the </text>
<text transform="matrix(1 0 0 1 284.9425 1106.8689)" class="st1 st14 st16">Procurement </text>
<text transform="matrix(1 0 0 1 285.9425 1130.8689)" class="st1 st14 st16">Ombudsman</text>
<rect x="478.5" y="1065.9" class="st11" width="159.6" height="65.9"/>
<text transform="matrix(1 0 0 1 511.2532 1082.1687)" class="st1 st14 st16">Canadian </text>
<text transform="matrix(1 0 0 1 492.7532 1106.1687)" class="st1 st14 st16">International </text>
<text transform="matrix(1 0 0 1 483.5532 1130.1687)" class="st1 st14 st16">Trade Tribunal</text>
<rect x="942.5" y="1078.4" class="st11" width="159.6" height="41"/>
<text transform="matrix(1 0 0 1 983.1568 1094.6191)" class="st1 st14 st16">Auditor </text>
<text transform="matrix(1 0 0 1 983.4568 1118.6191)" class="st1 st14 st16">General</text>
<rect x="703" y="1078.5" class="st11" width="159.6" height="40.6"/>
<text transform="matrix(1 0 0 1 721.6628 1094.7771)" class="st1 st14 st16">Competition </text>
<text transform="matrix(1 0 0 1 746.7628 1118.7771)" class="st1 st14 st16">Bureau </text>
<rect x="50.3" y="738" class="st11" width="153.8" height="69.6"/>
<text transform="matrix(1 0 0 1 50.2629 761.7764)"><tspan x="0" y="0" class="st17 st18">Client </tspan><tspan x="0" y="38.4" class="st17 st18">Demands</tspan></text>
<rect x="900.2" y="738" class="st11" width="250.8" height="69.6"/>
<text transform="matrix(1 0 0 1 984.8616 761.7764)"><tspan x="0" y="0" class="st17 st18">Canadians/ </tspan><tspan x="-82.3" y="38.4" class="st17 st18">Industry Interest</tspan></text>
</svg>
