<?xml version="1.0" encoding="utf-8"?>
<!-- Generator: Adobe Illustrator 22.0.1, SVG Export Plug-In . SVG Version: 6.00 Build 0)  -->
<svg version="1.1" id="Layer_1" xmlns="http://www.w3.org/2000/svg" xmlns:xlink="http://www.w3.org/1999/xlink" x="0px" y="0px"
	 viewBox="0 0 936 815" style="enable-background:new 0 0 936 815;" xml:space="preserve">
<style type="text/css">
	.st0{fill:#FFFFFF;stroke:#000000;stroke-width:4;stroke-miterlimit:10;}
	.st1{fill:#FFED85;}
	.st2{fill:#FFFFFF;}
	.st3{fill:#1BB1BF;}
	.st4{fill:none;}
	.st5{font-family:'OpenSans-CondensedLight';}
	.st6{font-size:17px;}
	.st7{font-family:'ArialMT';}
	.st8{font-size:25px;}
	.st9{font-size:12px;}
	.st10{fill:#47602E;}
	.st11{fill:#678842;}
</style>
<polygon points="627.4,295.4 632,300.1 632,70 636,70 636,299.9 640.6,295.4 643.3,298.1 634,307.3 624.8,298.1 "/>
<rect x="462" y="103" class="st0" width="471" height="158"/>
<g>
	<g>
		<g>
			<rect x="714" y="403" width="123.5" height="4"/>
		</g>
	</g>
</g>
<rect y="501" class="st1" width="936" height="311"/>
<rect x="792" y="574" class="st0" width="117" height="138"/>
<rect x="190" y="571" class="st2" width="550" height="140"/>
<g>
	<circle class="st3" cx="637.8" cy="393.5" r="85"/>
	<rect x="529.1" y="371.5" class="st4" width="217.5" height="66"/>
	<text transform="matrix(1 0 0 1 560.3213 384.375)" class="st2 st5 st6">Authority to enter </text>
	<text transform="matrix(1 0 0 1 563.7213 407.375)" class="st2 st5 st6">into contracts for </text>
	<text transform="matrix(1 0 0 1 607.2213 430.375)" class="st2 st5 st6">GOODS</text>
</g>
<g>
	<rect x="101.7" y="3" class="st4" width="732.2" height="50.5"/>
	<text transform="matrix(1 0 0 1 103.3081 21.4502)" class="st7 st8">Ministers have inherent power to contract for goods and services as </text>
	<text transform="matrix(1 0 0 1 209.9081 51.4502)" class="st7 st8">identified in each Department’s establishing act.</text>
</g>
<rect x="476.4" y="118" class="st4" width="440.6" height="138"/>
<text transform="matrix(1 0 0 1 476.377 130.918)" class="st5 st6">The authority given to the Minister of PSPC in </text>
<text transform="matrix(1 0 0 1 775.0956 130.918)" class="st7 st9">  </text>
<text transform="matrix(1 0 0 1 781.7635 130.918)" class="st7 st9">   </text>
<text transform="matrix(1 0 0 1 802.4771 130.918)" class="st10 st5 st6">section 9 </text>
<text transform="matrix(1 0 0 1 900.4938 130.918)" class="st7 st9">   </text>
<text transform="matrix(1 0 0 1 476.377 153.918)" class="st10 st5 st6">of the </text>
<text transform="matrix(1 0 0 1 518.1631 153.918)" class="st7 st9">   </text>
<text transform="matrix(1 0 0 1 527.177 153.918)" class="st10 st5 st6">Department of Public Works and Government </text>
<text transform="matrix(1 0 0 1 830.6968 153.918)" class="st7 st9">   </text>
<text transform="matrix(1 0 0 1 476.377 176.918)" class="st10 st5 st6">Services Act</text>
<text transform="matrix(1 0 0 1 551.8212 176.918)" class="st7 st9">  </text>
<text transform="matrix(1 0 0 1 558.4891 176.918)" class="st7 st9">  </text>
<text transform="matrix(1 0 0 1 610.377 176.918)" class="st5 st6">supplants the authority of each minister </text>
<text transform="matrix(1 0 0 1 476.377 199.918)" class="st5 st6">to contract for goods. The authority is restored to the </text>
<text transform="matrix(1 0 0 1 476.377 222.918)" class="st5 st6">extent determined by the Minister of PSPC through a </text>
<text transform="matrix(1 0 0 1 476.377 245.918)" class="st5 st6">delagation, in accordance with </text>
<text transform="matrix(1 0 0 1 679.9487 245.918)" class="st7 st9">  </text>
<text transform="matrix(1 0 0 1 686.6166 245.918)" class="st7 st9">   </text>
<text transform="matrix(1 0 0 1 721.177 245.918)" class="st10 st5 st6">section 8 of the act</text>
<text transform="matrix(1 0 0 1 843.587 245.918)" class="st7 st9">  </text>
<text transform="matrix(1 0 0 1 850.2549 245.918)" class="st7 st9">  </text>
<text transform="matrix(1 0 0 1 870.877 245.918)" class="st5 st6">.</text>
<rect x="737.1" y="421.7" class="st4" width="121.5" height="44.5"/>
<text transform="matrix(1 0 0 1 773.2119 434.6475)" class="st5 st6">Minister of </text>
<text transform="matrix(1 0 0 1 818.1119 457.6475)" class="st5 st6">PSPC</text>
<rect x="790.8" y="602" class="st4" width="120.3" height="94.5"/>
<text transform="matrix(1 0 0 1 808.1055 614.8779)" class="st5 st6">Delegation </text>
<text transform="matrix(1 0 0 1 803.8055 637.8779)" class="st5 st6">of Authority </text>
<text transform="matrix(1 0 0 1 827.4055 660.8779)" class="st5 st6">Letter </text>
<text transform="matrix(1 0 0 1 820.6055 683.8779)" class="st5 st6">GOODS</text>
<rect x="172.1" y="770.5" class="st4" width="181.9" height="44.5"/>
<text transform="matrix(1 0 0 1 174.0386 783.4199)" class="st5 st6">Departmental Officials</text>
<rect x="376.5" y="770.5" class="st4" width="179.5" height="44.5"/>
<text transform="matrix(1 0 0 1 377.2285 783.4199)" class="st5 st6">Departmental Officials</text>
<rect x="420.2" y="583.7" class="st4" width="92.2" height="18.3"/>
<text transform="matrix(1 0 0 1 429.71 596.6475)" class="st5 st6">Ministers</text>
<rect x="579" y="770.5" class="st4" width="183" height="44.5"/>
<text transform="matrix(1 0 0 1 581.4785 783.4199)" class="st5 st6">Departmental Officials</text>
<rect x="260.5" y="529.2" class="st4" width="412.5" height="44.5"/>
<text transform="matrix(1 0 0 1 290.6108 542.0869)" class="st7 st9">  </text>
<text transform="matrix(1 0 0 1 290.6108 542.0869)" class="st5 st6">Within Treasury Board </text>
<text transform="matrix(1 0 0 1 440.8815 542.0869)" class="st7 st9">  </text>
<text transform="matrix(1 0 0 1 447.5495 542.0869)" class="st7 st9">   </text>
<text transform="matrix(1 0 0 1 486.0108 542.0869)" class="st10 st5 st6">Contracting Limits</text>
<text transform="matrix(1 0 0 1 602.7032 542.0869)" class="st7 st9">  </text>
<text transform="matrix(1 0 0 1 609.3712 542.0869)" class="st7 st9"> </text>
<polygon points="755.7,675.8 751,671 792,671 792,667 751.2,667 755.7,662.6 753,660 743.8,669.2 753,678.4 "/>
<polygon points="175.5,675.8 180.2,671 139,671 139,667 180,667 175.5,662.6 178.1,660 187.4,669.2 178.1,678.4 "/>
<g>
	<path class="st2" d="M402.3,437.2h-4c0-6,4.5-11.1,10.5-11.8l0.5,4C405.3,429.8,402.3,433.1,402.3,437.2z"/>
</g>
<g>
	<g>
		<g>
			<path d="M872.3,573h-4V375.5c0-0.5,0.2-1,0.6-1.4c5.6-5.6,8.7-13.1,8.7-21c0-16.4-13.3-29.7-29.7-29.7s-29.7,13.3-29.7,29.7
				c0,0.5,0,0.9,0,1.3s-0.1,0.8-0.3,1.1l-8.5,14.7h3.9c1.1,0,2,0.9,2,2v12.5c0,3.6,2.9,6.5,6.5,6.5h13.5c1.1,0,2,0.9,2,2v11.4h-4
				v-9.4h-11.5c-5.8,0-10.5-4.7-10.5-10.5v-10.5H806c-0.7,0-1.4-0.4-1.7-1c-0.4-0.6-0.4-1.4,0-2l10-17.2c0-0.3,0-0.6,0-0.9
				c0-18.6,15.1-33.7,33.7-33.7c18.6,0,33.7,15.1,33.7,33.7c0,8.7-3.3,16.9-9.3,23.2V573H872.3z"/>
		</g>
	</g>
</g>
<g>
	<g>
		<g>
			<path d="M488.3,755h-4v-89.5c0-0.5,0.2-1,0.6-1.4c5.6-5.6,8.7-13.1,8.7-21c0-16.4-13.3-29.7-29.7-29.7
				c-16.4,0-29.7,13.3-29.7,29.7c0,0.5,0,0.9,0,1.3c0,0.4-0.1,0.8-0.3,1.1l-8.5,14.7h3.9c1.1,0,2,0.9,2,2v12.5
				c0,3.6,2.9,6.5,6.5,6.5h13.5c1.1,0,2,0.9,2,2v11.4h-4v-9.4h-11.5c-5.8,0-10.5-4.7-10.5-10.5v-10.5H422c-0.7,0-1.4-0.4-1.7-1
				c-0.4-0.6-0.4-1.4,0-2l10-17.2c0-0.3,0-0.6,0-0.9c0-18.6,15.1-33.7,33.7-33.7s33.7,15.1,33.7,33.7c0,8.7-3.3,16.9-9.3,23.2V755
				H488.3z"/>
		</g>
	</g>
	<rect x="480" y="742.8" transform="matrix(0.7071 -0.7071 0.7071 0.7071 -389.5248 560.6706)" width="4" height="15.5"/>
	<rect x="482.3" y="748.5" transform="matrix(0.7071 -0.7071 0.7071 0.7071 -387.1319 566.3069)" width="15.5" height="4"/>
</g>
<g>
	<g>
		<g>
			<path d="M655.3,755h-4v-89.5c0-0.5,0.2-1,0.6-1.4c5.6-5.6,8.7-13.1,8.7-21c0-16.4-13.3-29.7-29.7-29.7s-29.7,13.3-29.7,29.7
				c0,0.5,0,0.9,0,1.3c0,0.4-0.1,0.8-0.3,1.1l-8.5,14.7h3.9c1.1,0,2,0.9,2,2v12.5c0,3.6,2.9,6.5,6.5,6.5h13.5c1.1,0,2,0.9,2,2v11.4
				h-4v-9.4h-11.5c-5.8,0-10.5-4.7-10.5-10.5v-10.5H589c-0.7,0-1.4-0.4-1.7-1c-0.4-0.6-0.4-1.4,0-2l10-17.2c0-0.3,0-0.6,0-0.9
				c0-18.6,15.1-33.7,33.7-33.7c18.6,0,33.7,15.1,33.7,33.7c0,8.7-3.3,16.9-9.3,23.2V755H655.3z"/>
		</g>
	</g>
	<rect x="647" y="742.8" transform="matrix(0.7071 -0.7071 0.7071 0.7071 -340.6128 678.757)" width="4" height="15.5"/>
	<rect x="649.3" y="748.5" transform="matrix(0.7071 -0.7071 0.7071 0.7071 -338.2198 684.3933)" width="15.5" height="4"/>
</g>
<g>
	<g>
		<g>
			<path d="M324.3,755h-4v-89.5c0-0.5,0.2-1,0.6-1.4c5.6-5.6,8.7-13.1,8.7-21c0-16.4-13.3-29.7-29.7-29.7
				c-16.4,0-29.7,13.3-29.7,29.7c0,0.5,0,0.9,0,1.3c0,0.4-0.1,0.8-0.3,1.1l-8.5,14.7h3.9c1.1,0,2,0.9,2,2v12.5
				c0,3.6,2.9,6.5,6.5,6.5h13.5c1.1,0,2,0.9,2,2v11.4h-4v-9.4h-11.5c-5.8,0-10.5-4.7-10.5-10.5v-10.5H258c-0.7,0-1.4-0.4-1.7-1
				c-0.4-0.6-0.4-1.4,0-2l10-17.2c0-0.3,0-0.6,0-0.9c0-18.6,15.1-33.7,33.7-33.7s33.7,15.1,33.7,33.7c0,8.7-3.3,16.9-9.3,23.2V755
				H324.3z"/>
		</g>
	</g>
	<rect x="316" y="742.8" transform="matrix(0.7071 -0.7071 0.7071 0.7071 -437.5581 444.7055)" width="4" height="15.5"/>
	<rect x="318.3" y="748.5" transform="matrix(0.7071 -0.7071 0.7071 0.7071 -435.1653 450.3419)" width="15.5" height="4"/>
</g>
<rect x="284.3" y="639.8" class="st4" width="25.5" height="18.5"/>
<text transform="matrix(1 0 0 1 291.1357 652.6699)" class="st5 st6">A</text>
<rect x="449.6" y="639.8" class="st4" width="25.5" height="18.5"/>
<text transform="matrix(1 0 0 1 456.6494 652.6699)" class="st5 st6">B</text>
<rect x="614.6" y="639.8" class="st4" width="25.5" height="18.5"/>
<text transform="matrix(1 0 0 1 621.9443 652.6699)" class="st5 st6">C</text>
<g>
	<g>
		<g>
			<polyline points="142.8,405 142.8,670.8 138.8,670.8 138.8,405 			"/>
		</g>
	</g>
</g>
<g>
	<g>
		<g>
			<polyline points="138.8,403 246.7,403 246.7,407 138.8,407 			"/>
		</g>
	</g>
</g>
<g>
	<circle class="st11" cx="299.9" cy="393.5" r="85"/>
	<rect x="191.2" y="372" class="st4" width="217.5" height="70.5"/>
	<text transform="matrix(1 0 0 1 222.4097 384.874)" class="st2 st5 st6">Authority to enter</text>
	<text transform="matrix(1 0 0 1 223.6097 407.874)" class="st2 st5 st6"> into contracts for </text>
	<text transform="matrix(1 0 0 1 261.7097 430.874)" class="st2 st5 st6">SERVICES</text>
</g>
<polygon points="306.6,295.4 302,300.1 302,70 298,70 298,299.9 293.4,295.4 290.7,298.1 300,307.3 309.2,298.1 "/>
<path class="st3" d="M660.5,524.9h-12.2l3.4,3.1h-6.2v11.8h11.7v-6.4l3.3,3V524.9z M658.5,532.3l-2.1-2l-4.9,4.9l1.3,1.3l2.4-2.4
	v3.8h-7.9v-7.8h3.7l-2.3,2.3l1.3,1.3l5-4.9l-2.1-2h5.6V532.3z"/>
<path class="st3" d="M588.2,159.6H576l3.4,3.1h-6.2v11.8h11.7v-6.4l3.3,3V159.6z M586.3,166.9l-2.1-2l-4.9,4.9l1.3,1.3l2.4-2.4v3.8
	h-7.9v-7.8h3.7l-2.3,2.3l1.3,1.3l5-4.9l-2.1-2h5.6V166.9z"/>
<path class="st3" d="M892,228.2h-12.2l3.4,3.1H877v11.8h11.7v-6.4l3.3,3V228.2z M890,235.5l-2.1-2l-4.9,4.9l1.3,1.3l2.4-2.4v3.8H879
	v-7.8h3.7l-2.3,2.3l1.3,1.3l5-4.9l-2.1-2h5.6L890,235.5z"/>
</svg>
