<?xml version="1.0" encoding="utf-8"?>
<!-- Generator: Adobe Illustrator 24.0.2, SVG Export Plug-In . SVG Version: 6.00 Build 0)  -->
<svg version="1.1"
	 id="Image" xmlns:cc="http://creativecommons.org/ns#" xmlns:dc="http://purl.org/dc/elements/1.1/" xmlns:rdf="http://www.w3.org/1999/02/22-rdf-syntax-ns#" xmlns:svg="http://www.w3.org/2000/svg"
	 xmlns="http://www.w3.org/2000/svg" xmlns:xlink="http://www.w3.org/1999/xlink" x="0px" y="0px" viewBox="0 0 1595.3 767.8"
	 style="enable-background:new 0 0 1595.3 767.8;" xml:space="preserve">
<style type="text/css">
	.st0{fill:#A2B63B;}
	.st1{font-family:sans-serif;}
	.st2{font-size:32px;}
	.st3{fill:#AFC058;}
	.st4{fill:#BDCB76;}
	.st5{fill:#CCD793;}
	.st6{fill:#D9E1B2;}
	.st7{display:none;opacity:0;transition:2s all}
    .st7:target{display:block;opacity:1;outline:none;}
    .st7:active,.st7:focus{outline:none;}
	
		.st8{display:inline;fill:#FFFFFF;stroke:#000000;stroke-width:5;stroke-linecap:round;stroke-miterlimit:15.1181;stroke-dasharray:4.9134,9.8268;}
	.st9{display:inline;}
	.st10{font-family:sans-serif;font-weight:bold}
	.st11{font-size:36px;}
	.st12{display:inline;fill:none;}
	.st13{display:inline;enable-background:new    ;}
</style>
<g id="Pyramid" transform="translate(-2.7034767,-11.249958)">
	<a href="#Level_1">
		<path id="path849" onclick="javascript:" class="st0" d="M316.3,169.6l76.5-144c0,0,68.1,129.6,74.2,141.5l1.5,3L316.3,169.6"/>
		<text transform="matrix(1 0 0 1 368.3929 139.4843)" class="st1 st2">Act</text>
	</a>
	<a href="#Level_2">
		<path id="path857" onclick="javascript:" class="st3" d="M314.5,173h155.2l76.7,146.4H237.7L314.5,173"/>
		<text transform="matrix(1 0 0 1 315.6859 257.5898)" class="st1 st2">Regulation</text>
	</a>
	<a href="#Level_3">
		<path id="path855" onclick="javascript:" class="st4" d="M236.2,321.5h311.2l76.1,146H159.3L236.2,321.5"/>
		<text transform="matrix(1 0 0 1 313.2445 402.7988)" class="st1 st2">Agreement</text>
	</a>
	<a href="#Level_4">
		<path id="path853" onclick="javascript:" class="st5" d="M81.4,615.7l76.7-145.8h467.1l76,145.8H86.7h-4H81.4"/>
		<text transform="matrix(1 0 0 1 347.5551 551.7265)" class="st1 st2">Policy</text>
	</a>
	<a href="#Level_5">
		<path id="path851" onclick="javascript:" class="st6" d="M79.7,618.3H703l76,145.6H2.7L79.7,618.3"/>
		<text transform="matrix(1 0 0 1 327.8129 702.6152)" class="st1 st2">Directive</text>
	</a>
</g>
<g id="Level_1" transform="translate(-2.7034767,-11.249958)" class="st7" style="outline:none">
	<path id="rect891" class="st8" d="M392.8,19.8h545.4h560c51.4,0,92.9,41.4,92.9,92.9v567.1c0,51.4-41.4,92.9-92.9,92.9h-560
		c-51.4,0-92.9-41.4-92.9-92.9V170.1H468.5"/>
	<text transform="matrix(1 0 0 1 989.1752 195.8754)" class="st9 st10 st11">Financial Administration Act</text>
	<text transform="matrix(1 0 0 1 945.0752 282.2754)" class="st9 st1 st11">Provides the legal framework for the </text>
	<text transform="matrix(1 0 0 1 951.9752 325.4754)" class="st9 st1 st11">collection and expenditure of public </text>
	<text transform="matrix(1 0 0 1 985.0752 368.6754)" class="st9 st1 st11">funds, including the contracting </text>
	<text transform="matrix(1 0 0 1 968.0752 411.8754)" class="st9 st1 st11">practices of PSPC and its clients. </text>
</g>
<g id="Level_2" transform="translate(0,1.6178996)" class="st7" style="outline:none">
	<path id="rect1109" class="st8" d="M544.7,308.6h299.6V383v286.4c0,51.4,41.4,92.9,92.9,92.9h561.4c51.4,0,92.9-41.4,92.9-92.9
		V96.6c0-51.4-41.4-92.9-92.9-92.9H937.1c-51.4,0-92.9,41.4-92.9,92.9v61L467,160.1"/>
	<text transform="matrix(1 0 0 1 937.4639 183.0075)" class="st9 st10 st11">Government Contract Regulations</text>
	<text transform="matrix(1 0 0 1 934.364 269.4075)" class="st9 st1 st11">Contains conditions of contract entry, </text>
	<text transform="matrix(1 0 0 1 995.364 312.6075)" class="st9 st1 st11">and bid and contract security.</text>
</g>
<g id="Level_3" transform="translate(0,1.6178996)" class="st7" style="outline:none">
	<path id="rect1117" class="st8" d="M620.8,454.6h226.4V688c0,41.9,33.8,75.7,75.7,75.7h594.3c41.9,0,75.7-33.8,75.7-75.7V76.5
		c0-41.9-33.8-75.7-75.7-75.7H922.8c-41.9,0-75.7,33.8-75.7,75.7V307l-302.4,1.6"/>
	<text transform="matrix(1 0 0 1 998.4336 183.0075)" class="st9 st10 st11">North American Free Trade </text>
	<text transform="matrix(1 0 0 1 1136.4336 226.2075)" class="st9 st10 st11">Agreement</text>
	<text transform="matrix(1 0 0 1 932.3336 312.6075)" class="st9 st1 st11">Contains procurement provisions that </text>
	<text transform="matrix(1 0 0 1 922.3336 355.8075)" class="st9 st1 st11">focus on achieving greater competition </text>
	<text transform="matrix(1 0 0 1 936.3336 399.0075)" class="st9 st1 st11">for, and transparency in, government </text>
	<text transform="matrix(1 0 0 1 919.3336 442.2075)" class="st9 st1 st11">procurement, eliminating the protection </text>
	<text transform="matrix(1 0 0 1 945.3336 485.4075)" class="st9 st1 st11">of domestic products or suppliers or </text>
	<text transform="matrix(1 0 0 1 926.3336 528.6075)" class="st9 st1 st11">discrimination among foreign products </text>
	<text transform="matrix(1 0 0 1 1132.4336 571.8075)" class="st9 st1 st11">or suppliers.</text>
</g>
<g id="Level_4" transform="translate(0,1.6178996)" class="st7" style="outline:none">
	<path id="path1130" class="st8" d="M700.8,602.8h146.4V688c0,41.9,33.8,75.7,75.7,75.7h594.3c41.9,0,75.7-33.8,75.7-75.7V76.5
		c0-41.9-33.8-75.7-75.7-75.7H922.8c-41.9,0-75.7,33.8-75.7,75.7v378.7l-222.4,1.6"/>
	<text transform="matrix(1 0 0 1 933.4297 183.0075)" class="st9 st10 st11">Treasury Board Contracting Policy </text>
	<text transform="matrix(1 0 0 1 938.3297 269.4075)" class="st9 st1 st11">Explains the requirements to acquire </text>
	<text transform="matrix(1 0 0 1 945.3297 312.6075)" class="st9 st1 st11">goods and services and to carry out </text>
	<text transform="matrix(1 0 0 1 998.3297 355.8075)" class="st9 st1 st11">construction in a manner that </text>
	<text transform="matrix(1 0 0 1 954.3297 399.0075)" class="st9 st1 st11">enhances access, competition and </text>
	<text transform="matrix(1 0 0 1 963.3297 442.2075)" class="st9 st1 st11">fairness and results in best value.</text>
</g>
<g id="Level_5" transform="translate(0,1.6178996)" class="st7" style="outline:none">
	<path id="path1133" class="st8" d="M776.2,751.1h104.6c12,8,26.4,12.6,42,12.6h594.3c41.9,0,75.7-33.8,75.7-75.7V76.5
		c0-41.9-33.8-75.7-75.7-75.7H922.8c-41.9,0-75.7,33.8-75.7,75.7v378.7v147.6H698.5"/>
	<text transform="matrix(1 0 0 1 912.3594 183.0073)" class="st13"><tspan x="0" y="0" class="st10 st11">Directive on Government Contracts,</tspan><tspan x="35" y="43.2" class="st10 st11">Including Real Property Leases,</tspan><tspan x="41" y="86.4" class="st10 st11">in the Nunavut Settlement Area</tspan></text>
	<text transform="matrix(1 0 0 1 907.2614 355.8076)" class="st13"><tspan x="0" y="0" class="st1 st11">Ensures that government contracting in</tspan><tspan x="7" y="43.2" class="st1 st11">the Nunavut Settlement Area will meet</tspan><tspan x="-8" y="86.4" class="st1 st11">the Government of Canada’s obligations</tspan><tspan x="65" y="129.6" class="st1 st11">under Article 24 of the Nunavut</tspan><tspan x="210.1" y="172.8" class="st1 st11">Agreement.  </tspan></text>
</g>
</svg>
