<?xml version="1.0" encoding="utf-8"?>
<!-- Generator: Adobe Illustrator 24.0.2, SVG Export Plug-In . SVG Version: 6.00 Build 0)  -->
<svg version="1.1"
	 id="Image" xmlns:cc="http://creativecommons.org/ns#" xmlns:dc="http://purl.org/dc/elements/1.1/" xmlns:rdf="http://www.w3.org/1999/02/22-rdf-syntax-ns#" xmlns:svg="http://www.w3.org/2000/svg"
	 xmlns="http://www.w3.org/2000/svg" xmlns:xlink="http://www.w3.org/1999/xlink" x="0px" y="0px" viewBox="0 0 612 400"
	 style="enable-background:new 0 0 612 400;" xml:space="preserve">
<style type="text/css">
	.st0{fill:#A2B63B;}
	.st1{font-family:'ArialMT';}
	.st2{font-size:12.2761px;}
	.st3{fill:#CCD793;}
	.st4{fill:#FDBE12;}
	.st5{enable-background:new    ;}
	.st6{fill:#1BB1BF;}
	.st7{display:none;}
	
		.st8{display:inline;fill:#FFFFFF;stroke:#000000;stroke-width:1.9181;stroke-linecap:round;stroke-miterlimit:5.7997;stroke-dasharray:1.8849,3.7698;}
	.st9{display:inline;}
	.st10{font-family:'Arial-BoldMT';}
	.st11{font-size:13.8106px;}
	.st12{font-size:12px;}
	.st13{display:inline;fill:none;}
	.st14{display:inline;fill:#A11D21;}
</style>
<g id="Pyramid" transform="translate(-2.7034767,-11.249958)">
	<a>
		<path id="path849" onclick="javascript:" class="st0" d="M123,124.7l29.3-55.2c0,0,26.1,49.7,28.5,54.3l0.6,1.2L123,124.7"/>
		<text transform="matrix(1 0 0 1 137.871 113.1699)" class="st1 st2">Laws</text>
	</a>
	<a>
		<path id="path857" onclick="javascript:" class="st3" d="M122.3,126h59.5l29.4,56.2H92.9L122.3,126"/>
		<text transform="matrix(1 0 0 1 119.6336 158.4785)" class="st1 st2">Regulations</text>
	</a>
	<a>
		<path id="path855" onclick="javascript:" class="st4" d="M92.3,183h119.4l29.2,56H62.8L92.3,183"/>
		<text transform="matrix(1 0 0 1 98.6395 209.5429)" class="st5"><tspan x="0" y="0" class="st1 st2">Policies, Directives,</tspan><tspan x="-11.3" y="14.7" class="st1 st2">Standards &amp; Guidelines</tspan></text>
	</a>
	<a>
		<path id="path853_1_" onclick="javascript:" class="st6" d="M62.8,295.9l0.3-55.9h179.2l0.1,55.9"/>
		<text transform="matrix(1 0 0 1 91.8746 263.8266)" class="st5"><tspan x="0" y="0" class="st1 st2">Departmental policies,</tspan><tspan x="3.4" y="14.7" class="st1 st2">procedures and tools</tspan></text>
	</a>
</g>
<g id="Level_1" transform="translate(-2.7034767,-11.249958)" class="st7">
	<path id="rect891" class="st8" d="M152.4,67.3h209.2h214.8c19.7,0,35.6,15.9,35.6,35.6v217.6c0,19.7-15.9,35.6-35.6,35.6H361.6
		c-19.7,0-35.6-15.9-35.6-35.6V124.9H181.4"/>
	<text transform="matrix(1 0 0 1 381.14 134.8027)" class="st9 st10 st11">Financial Administration Act</text>
	<text transform="matrix(1 0 0 1 364.223 167.9482)" class="st9 st1 st12">             </text>
	<text transform="matrix(1 0 0 1 364.223 167.9482)" class="st9 st1 st11">Cette loi fournit le cadre juridique</text>
	<text transform="matrix(1 0 0 1 566.1221 167.9482)" class="st9 st1 st12">             </text>
	<text transform="matrix(1 0 0 1 364.223 184.5482)" class="st9 st1 st11">pour la perception et l’utilisation</text>
	<text transform="matrix(1 0 0 1 557.686 184.5482)" class="st9 st1 st12">             </text>
	<text transform="matrix(1 0 0 1 364.223 201.0482)" class="st9 st1 st11">des fonds publics, y compris les</text>
	<text transform="matrix(1 0 0 1 559.1899 201.0482)" class="st9 st1 st12">             </text>
	<text transform="matrix(1 0 0 1 364.223 217.6482)" class="st9 st1 st11">pratiques contractuelles de SPAC</text>
	<text transform="matrix(1 0 0 1 569.7029 217.6482)" class="st9 st1 st12">             </text>
	<text transform="matrix(1 0 0 1 364.223 234.2482)" class="st9 st1 st11">et de ses clients. </text>
	<text transform="matrix(1 0 0 1 470.9247 234.2482)" class="st9 st1 st12">         </text>
	<polygon class="st13" points="553.4,182.6 558.8,182.6 558.8,182.6 	"/>
</g>
<g id="Level_2" transform="translate(0,1.6178996)" class="st7">
	<path id="rect1109" class="st8" d="M209,170.1h114.9v28.5v109.9c0,19.7,15.9,35.6,35.6,35.6h215.4c19.7,0,35.6-15.9,35.6-35.6V88.8
		c0-19.7-15.9-35.6-35.6-35.6H359.5c-19.7,0-35.6,15.9-35.6,35.6v23.4l-144.7,1"/>
	<text transform="matrix(1 0 0 1 349.6367 121.9348)" class="st9 st10 st11">Règlement sur les marchés de l’État</text>
	<text transform="matrix(1 0 0 1 358.4473 155.0803)" class="st9 st1 st12">             </text>
	<text transform="matrix(1 0 0 1 358.4473 155.0803)" class="st9 st1 st11">Ce règlement contient les conditions</text>
	<text transform="matrix(1 0 0 1 581.0758 155.0803)" class="st9 st1 st12">             </text>
	<text transform="matrix(1 0 0 1 358.4473 171.6803)" class="st9 st1 st11">de la conclusion d’un marché, ainsi</text>
	<text transform="matrix(1 0 0 1 573.4017 171.6803)" class="st9 st1 st12">             </text>
	<text transform="matrix(1 0 0 1 358.4473 188.1803)" class="st9 st1 st11">que la garantie des soumissions et</text>
	<text transform="matrix(1 0 0 1 571.1022 188.1803)" class="st9 st1 st12">             </text>
	<text transform="matrix(1 0 0 1 358.4473 204.7803)" class="st9 st1 st11">des marchés.</text>
	<text transform="matrix(1 0 0 1 441.3446 204.7803)" class="st9 st1 st12">         </text>
</g>
<g id="Level_3" transform="translate(0,1.6178996)" class="st7">
	<path id="rect1117" class="st8" d="M238.2,226.1H325v89.5c0,16.1,13,29,29,29h228c16.1,0,29-13,29-29V81.1c0-16.1-13-29-29-29H354
		c-16.1,0-29,13-29,29v88.4l-116,0.6"/>
	<text transform="matrix(1 0 0 1 393.3813 121.9348)" class="st9 st1 st12">             </text>
	<text transform="matrix(1 0 0 1 393.3813 121.9348)" class="st9 st10 st11">Accord de libre-échange</text>
	<text transform="matrix(1 0 0 1 554.5499 121.9348)" class="st9 st1 st12">             </text>
	<text transform="matrix(1 0 0 1 424.4813 138.5348)" class="st9 st10 st11">nord américain</text>
	<text transform="matrix(1 0 0 1 523.4888 138.5348)" class="st9 st1 st12">         </text>
	<text transform="matrix(1 0 0 1 357.668 171.6526)" class="st9 st1 st12">             </text>
	<text transform="matrix(1 0 0 1 357.668 171.6526)" class="st9 st1 st11">Cet accord contient des dispositions</text>
	<text transform="matrix(1 0 0 1 578.759 171.6526)" class="st9 st1 st12">             </text>
	<text transform="matrix(1 0 0 1 357.668 188.2526)" class="st9 st1 st11">relatives à l’approvisionnement qui</text>
	<text transform="matrix(1 0 0 1 569.5475 188.2526)" class="st9 st1 st12">             </text>
	<text transform="matrix(1 0 0 1 357.668 204.7526)" class="st9 st1 st11">visent à accroître la concurrence et</text>
	<text transform="matrix(1 0 0 1 572.6023 204.7526)" class="st9 st1 st12">             </text>
	<text transform="matrix(1 0 0 1 357.668 221.3526)" class="st9 st1 st11">la transparence dans les marchés</text>
	<text transform="matrix(1 0 0 1 564.9349 221.3526)" class="st9 st1 st12">             </text>
	<text transform="matrix(1 0 0 1 357.668 237.9526)" class="st9 st1 st11">de l’État, à éliminer la protection</text>
	<text transform="matrix(1 0 0 1 554.1859 237.9526)" class="st9 st1 st12">             </text>
	<text transform="matrix(1 0 0 1 357.668 254.5526)" class="st9 st1 st11">des produits ou des fournisseurs</text>
	<text transform="matrix(1 0 0 1 557.2676 254.5526)" class="st9 st1 st12">             </text>
	<text transform="matrix(1 0 0 1 357.668 271.0526)" class="st9 st1 st11">nationaux ou la discrimination entre</text>
	<text transform="matrix(1 0 0 1 574.9287 271.0526)" class="st9 st1 st12">             </text>
	<text transform="matrix(1 0 0 1 357.668 287.6526)" class="st9 st1 st11">les produits ou fournisseurs étrangers.</text>
	<text transform="matrix(1 0 0 1 592.5696 287.6526)" class="st9 st1 st12">         </text>
</g>
<g id="Level_4" transform="translate(0,1.6178996)" class="st7">
	<path id="path1130" class="st8" d="M239.7,283H325v32.7c0,16.1,13,29,29,29h228c16.1,0,29-13,29-29V81.1c0-16.1-13-29-29-29H354
		c-16.1,0-29,13-29,29v145.3l-85.3,0.6"/>
	<text transform="matrix(1 0 0 1 377.2659 121.9348)" class="st9 st1 st12">             </text>
	<text transform="matrix(1 0 0 1 377.2659 121.9348)" class="st9 st10 st11">Politique sur les marchés du</text>
	<text transform="matrix(1 0 0 1 565.3005 121.9348)" class="st9 st1 st12">             </text>
	<text transform="matrix(1 0 0 1 412.5659 138.5348)" class="st9 st10 st11">Conseil du Trésor</text>
	<text transform="matrix(1 0 0 1 529.2142 138.5348)" class="st9 st1 st12">         </text>
	<rect x="361.5" y="95.4" class="st14" width="217.2" height="202"/>
</g>
<g id="Level_5" transform="translate(0,1.6178996)" class="st7">
	<path id="path1133" class="st8" d="M297.8,339.9h40.1c4.6,3.1,10.1,4.8,16.1,4.8h228c16.1,0,29-13,29-29V81.1c0-16.1-13-29-29-29
		H354c-16.1,0-29,13-29,29v145.3V283h-57"/>
	<text transform="matrix(1 0 0 1 358.677 121.9348)" class="st9 st1 st12">             </text>
	<text transform="matrix(1 0 0 1 358.677 121.9348)" class="st9 st10 st11">Directive sur les marchés de l’État,</text>
	<text transform="matrix(1 0 0 1 587.4286 121.9348)" class="st9 st1 st12">             </text>
	<text transform="matrix(1 0 0 1 356.377 138.5348)" class="st9 st10 st11">incluant les baux immobiliers, dans</text>
	<text transform="matrix(1 0 0 1 589.6871 138.5348)" class="st9 st1 st12">             </text>
	<text transform="matrix(1 0 0 1 404.377 155.0348)" class="st9 st10 st11">la région du Nunavut</text>
	<text transform="matrix(1 0 0 1 541.721 155.0348)" class="st9 st1 st12">         </text>
	<text transform="matrix(1 0 0 1 348.0498 188.2258)" class="st9 st1 st12">             </text>
	<text transform="matrix(1 0 0 1 348.0498 188.2258)" class="st9 st1 st11">Cette directive veille à ce que les</text>
	<text transform="matrix(1 0 0 1 549.9422 188.2258)" class="st9 st1 st12">             </text>
	<text transform="matrix(1 0 0 1 348.0498 204.8258)" class="st9 st1 st11">marchés de l’État dans la région du</text>
	<text transform="matrix(1 0 0 1 564.5418 204.8258)" class="st9 st1 st12">             </text>
	<text transform="matrix(1 0 0 1 348.0498 221.3258)" class="st9 st1 st11">Nunavut respectent les obligations</text>
	<text transform="matrix(1 0 0 1 559.174 221.3258)" class="st9 st1 st12">             </text>
	<text transform="matrix(1 0 0 1 348.0498 237.9258)" class="st9 st1 st11">du gouvernement du Canada en vertu</text>
	<text transform="matrix(1 0 0 1 580.6924 237.9258)" class="st9 st1 st12">             </text>
	<text transform="matrix(1 0 0 1 348.0498 254.5258)" class="st9 st1 st11">de l’article 24 de l’Accord du Nunavut. </text>
	<text transform="matrix(1 0 0 1 583.7269 254.5258)" class="st9 st1 st12">         </text>
</g>
</svg>
